<?xml version="1.0" encoding="UTF-8" standalone="no"?>
<!-- Created with Inkscape (http://www.inkscape.org/) -->

<svg
   xmlns:dc="http://purl.org/dc/elements/1.1/"
   xmlns:cc="http://creativecommons.org/ns#"
   xmlns:rdf="http://www.w3.org/1999/02/22-rdf-syntax-ns#"
   xmlns:svg="http://www.w3.org/2000/svg"
   xmlns="http://www.w3.org/2000/svg"
   version="1.1"
   width="744.09448"
   height="1052.3622"
   id="svg4150">
  <defs
     id="defs4152" />
  <metadata
     id="metadata4155">
    <rdf:RDF>
      <cc:Work
         rdf:about="">
        <dc:format>image/svg+xml</dc:format>
        <dc:type
           rdf:resource="http://purl.org/dc/dcmitype/StillImage" />
        <dc:title></dc:title>
      </cc:Work>
    </rdf:RDF>
  </metadata>
  <g
     id="layer1">
    <path
       d="m 400,82.110672 c 0,16.457804 -89.54305,0.505071 -200,0.505071 -110.45695,0 -200,15.952733 -200,-0.505071 0,-16.457804 89.54305,-29.79949 200,-29.79949 110.45695,0 200,13.341686 200,29.79949 z"
       id="path4264"
       style="fill:#00ff00;fill-opacity:1;stroke:none" />
    <path
       d="m 351.42857,162.41779 c 0,16.73675 -68.58585,0 -151.42857,0 -82.84271,0 -148.571426,16.73675 -148.571426,0 0,-16.73676 67.157286,-30.30458 149.999996,-30.30458 82.84272,0 150,13.56782 150,30.30458 z"
       id="path4266"
       style="fill:#008000;fill-opacity:1;stroke:none" />
    <path
       d="m 300,242.21983 c 0,16.73676 -44.77153,1e-5 -100,1e-5 -55.22847,0 -100,16.73675 -100,-1e-5 0,-16.73675 44.77153,-30.30457 100,-30.30457 55.22847,0 100,13.56782 100,30.30457 z"
       id="path4268"
       style="fill:#00ff00;fill-opacity:1;stroke:none" />
    <path
       d="m 251.42857,322.52698 c 0,16.45781 -23.81433,-0.50509 -51.42857,-0.50509 -27.61423,0 -48.57143,16.9629 -48.57143,0.50509 0,-16.45781 22.38577,-29.7995 50,-29.7995 27.61424,0 50,13.34169 50,29.7995 z"
       id="path4270"
       style="fill:#008000;fill-opacity:1;stroke:none" />
    <path
       d="m 251.42856,378.04077 a 25.714285,25.714285 0 1 1 -51.42857,0 25.714285,25.714285 0 1 1 51.42857,0 z"
       transform="translate(-25.714279,-1.3970337e-5)"
       id="path4284"
       style="fill:#00ff00;fill-opacity:1;stroke:none" />
  </g>
</svg>
