<?xml version="1.0" encoding="UTF-8" standalone="no"?>
<!-- Created with Inkscape (http://www.inkscape.org/) -->

<svg
   xmlns:dc="http://purl.org/dc/elements/1.1/"
   xmlns:cc="http://creativecommons.org/ns#"
   xmlns:rdf="http://www.w3.org/1999/02/22-rdf-syntax-ns#"
   xmlns:svg="http://www.w3.org/2000/svg"
   xmlns="http://www.w3.org/2000/svg"
   xmlns:xlink="http://www.w3.org/1999/xlink"
   version="1.1"
   width="744.09448"
   height="1052.3622"
   id="svg4029">
  <defs
     id="defs4031">
    <radialGradient
       cx="434.28571"
       cy="529.50507"
       r="274.28571"
       fx="434.28571"
       fy="529.50507"
       id="radialGradient4025"
       xlink:href="#linearGradient3832"
       gradientUnits="userSpaceOnUse"
       gradientTransform="matrix(0.67708339,1.2708333,-0.88255384,0.47021137,607.55479,-271.37897)" />
    <linearGradient
       id="linearGradient3832">
      <stop
         id="stop3834"
         style="stop-color:#0000ff;stop-opacity:1"
         offset="0" />
      <stop
         id="stop3836"
         style="stop-color:#0000ff;stop-opacity:1"
         offset="1" />
    </linearGradient>
    <radialGradient
       cx="434.28571"
       cy="529.50507"
       r="274.28571"
       fx="434.28571"
       fy="529.50507"
       id="radialGradient4056"
       xlink:href="#linearGradient3832"
       gradientUnits="userSpaceOnUse"
       gradientTransform="matrix(0.67708339,1.2708333,-0.88255384,0.47021137,607.55479,-271.37897)" />
  </defs>
  <metadata
     id="metadata4034">
    <rdf:RDF>
      <cc:Work
         rdf:about="">
        <dc:format>image/svg+xml</dc:format>
        <dc:type
           rdf:resource="http://purl.org/dc/dcmitype/StillImage" />
        <dc:title></dc:title>
      </cc:Work>
    </rdf:RDF>
  </metadata>
  <g
     id="layer1">
    <path
       d="m 708.57141,532.36218 a 274.28571,274.28571 0 1 1 -548.57141,0 274.28571,274.28571 0 1 1 548.57141,0 z"
       transform="translate(-57.142814,-28.321436)"
       id="path4015"
       style="opacity:0.7892562;fill:url(#radialGradient4056);fill-opacity:1;stroke:none" />
    <path
       d="m 708.57141,532.36218 a 274.28571,274.28571 0 1 1 -548.57141,0 274.28571,274.28571 0 1 1 548.57141,0 z"
       transform="matrix(0.22916664,0,0,0.22916661,277.61716,382.04109)"
       id="path4017"
       style="opacity:0.7892562;fill:#ff0000;fill-opacity:1;stroke:none" />
    <path
       d="m 456.92716,550.6839 62.97,62.28597 18.08,-18.2819 32.88,100.8369 -103.2,-29.7406 18.08,-18.2819 -62.97,-62.286 z"
       id="path4019"
       style="fill:#ffffff;fill-opacity:1;stroke:#000000;stroke-width:1px;stroke-linecap:butt;stroke-linejoin:miter;stroke-opacity:1" />
    <path
       d="m 354.28716,412.6122 0,-88.57143 -25.71,0 48.57,-94.28571 51.43,94.28571 -25.72,0 0,88.57143 z"
       id="path4021"
       style="fill:#ffffff;fill-opacity:1;stroke:#000000;stroke-width:1px;stroke-linecap:butt;stroke-linejoin:miter;stroke-opacity:1" />
    <path
       d="m 337.69716,582.80957 -62.01,63.2439 18.36,18.0026 -100.69,33.3192 29.28,-103.3293 18.37,18.0026 62,-63.24386 z"
       id="path4023"
       style="fill:#ffffff;fill-opacity:1;stroke:#000000;stroke-width:1px;stroke-linecap:butt;stroke-linejoin:miter;stroke-opacity:1" />
  </g>
</svg>
